<?xml version="1.0" standalone="no"?>
<!DOCTYPE svg PUBLIC "-//W3C//DTD SVG 20010904//EN"
 "http://www.w3.org/TR/2001/REC-SVG-20010904/DTD/svg10.dtd">
<svg version="1.0" xmlns="http://www.w3.org/2000/svg"
 width="1079.000000pt" height="992.000000pt" viewBox="0 0 1079.000000 992.000000"
 preserveAspectRatio="xMidYMid meet">

<g transform="translate(0.000000,992.000000) scale(0.100000,-0.100000)"
fill="#000000" stroke="none">
<path d="M3003 8069 c-57 -17 -106 -103 -189 -336 -207 -582 -181 -1115 76
-1548 32 -55 58 -100 57 -101 -1 -2 -40 9 -86 22 -344 99 -725 106 -1072 19
-251 -63 -507 -183 -544 -256 -46 -89 18 -403 126 -616 220 -433 590 -781
1008 -949 300 -120 619 -154 885 -94 95 21 105 19 106 -25 0 -11 16 -87 35
-170 56 -239 176 -577 298 -835 101 -217 197 -440 221 -518 34 -108 33 -169
-5 -389 -51 -298 -49 -457 7 -636 78 -246 231 -439 480 -602 65 -44 165 -116
221 -160 177 -140 343 -213 588 -256 178 -32 491 -32 665 -1 267 48 405 111
625 287 50 39 132 98 184 130 163 102 334 282 410 433 45 89 88 224 100 315
19 138 13 251 -24 473 -19 115 -35 229 -35 254 0 92 51 243 153 460 243 517
348 803 413 1129 13 69 26 127 29 129 2 2 46 -6 97 -19 80 -20 120 -23 283
-23 201 -1 259 7 441 60 99 28 272 103 377 163 323 185 634 521 792 854 89
187 135 368 135 525 0 74 0 75 -39 112 -73 69 -344 188 -526 230 -175 40 -296
54 -485 54 -214 0 -359 -18 -545 -69 -66 -18 -121 -32 -122 -32 -1 1 23 43 53
92 130 216 202 460 219 740 13 206 -36 520 -120 763 -50 148 -128 327 -153
355 -30 34 -78 49 -121 37 -65 -17 -78 -42 -107 -191 -51 -268 -95 -403 -190
-589 -173 -337 -433 -560 -802 -690 l-82 -30 -93 50 c-566 303 -1268 369
-1942 185 -142 -39 -295 -101 -436 -175 -51 -28 -103 -50 -115 -50 -12 0 -62
14 -111 31 -499 175 -833 590 -948 1179 -43 220 -45 227 -68 248 -21 19 -70
43 -85 41 -4 0 -21 -5 -39 -10z m97 -661 c43 -120 148 -314 226 -419 199 -268
471 -464 795 -573 74 -25 143 -46 153 -46 10 0 58 23 106 50 233 133 499 225
761 264 596 88 1130 -8 1619 -289 35 -20 53 -25 84 -20 48 7 259 87 351 133
427 212 724 594 855 1097 27 105 29 109 40 80 35 -89 72 -214 96 -325 26 -117
28 -140 29 -365 0 -231 -1 -244 -27 -343 -57 -212 -128 -353 -273 -547 -88
-117 -264 -294 -382 -385 -39 -30 -79 -67 -87 -82 -23 -38 -20 -81 9 -112 41
-44 85 -33 186 49 94 76 252 177 368 235 420 210 918 242 1381 90 64 -21 153
-56 198 -79 94 -47 90 -38 67 -174 -19 -106 -52 -201 -111 -320 -295 -588
-923 -990 -1488 -952 -122 8 -171 17 -307 55 -164 46 -177 36 -209 -170 -56
-355 -161 -658 -413 -1195 -185 -393 -205 -513 -140 -830 37 -180 39 -401 5
-518 -63 -219 -191 -378 -442 -546 -69 -46 -143 -101 -165 -121 -53 -48 -146
-110 -220 -147 -217 -110 -595 -151 -910 -98 -219 36 -363 99 -524 229 -42 34
-128 97 -191 140 -203 138 -294 231 -369 375 -107 208 -123 407 -56 729 29
140 33 283 10 380 -20 84 -76 232 -137 361 -266 562 -388 912 -438 1252 -28
191 -47 205 -214 154 -344 -104 -735 -49 -1080 151 -385 223 -721 648 -805
1016 -11 46 -22 106 -25 134 l-6 51 58 31 c353 188 898 240 1303 123 212 -61
471 -196 679 -356 63 -48 112 -75 136 -75 10 0 28 10 41 22 27 26 31 82 8 116
-9 12 -73 69 -142 127 -193 161 -323 310 -437 500 -188 312 -243 657 -170
1050 18 94 78 311 100 364 l16 36 33 -122 c18 -68 43 -151 55 -185z"/>
<path d="M3161 6764 c-20 -14 -22 -23 -18 -58 9 -69 118 -270 222 -409 152
-203 403 -439 450 -421 8 3 43 45 80 92 36 48 79 104 97 125 29 34 30 39 16
53 -8 9 -48 30 -89 48 -220 96 -430 263 -664 529 -28 31 -55 57 -61 57 -5 0
-20 -7 -33 -16z"/>
<path d="M7878 6768 c-8 -7 -53 -56 -98 -108 -173 -199 -382 -361 -595 -460
-75 -36 -105 -55 -105 -67 0 -10 23 -44 50 -77 28 -32 71 -85 96 -117 27 -35
53 -59 64 -59 41 0 208 146 337 295 118 137 200 258 269 399 60 120 69 177 35
196 -25 13 -34 13 -53 -2z"/>
<path d="M5386 6379 c-320 -21 -644 -123 -875 -276 -175 -116 -360 -325 -446
-504 -60 -126 -51 -146 105 -239 538 -321 831 -722 936 -1282 22 -116 30 -461
14 -597 -40 -338 -195 -725 -374 -936 -61 -71 -179 -241 -210 -303 -92 -181
-105 -327 -44 -489 26 -70 109 -158 181 -191 111 -52 197 -52 391 -2 215 55
277 63 486 64 209 0 235 -3 475 -61 206 -50 294 -51 387 -5 121 59 186 142
214 271 45 212 -25 400 -255 686 -143 178 -231 341 -306 570 -54 162 -81 287
-94 435 -44 473 52 889 286 1240 164 246 368 427 683 610 41 24 85 53 98 64
35 31 29 82 -19 179 -132 261 -325 446 -613 587 -216 106 -449 165 -686 176
-63 2 -137 6 -165 7 -27 2 -104 0 -169 -4z m554 -224 c336 -71 586 -207 768
-418 51 -59 139 -194 131 -201 -2 -1 -47 -29 -98 -62 -636 -398 -972 -998
-971 -1734 1 -450 120 -862 350 -1206 l67 -102 -36 -6 c-111 -17 -247 -129
-308 -252 -53 -109 -56 -244 -8 -358 8 -18 5 -19 -31 -12 -85 14 -332 18 -438
7 -59 -7 -110 -11 -112 -9 -2 2 4 24 13 48 25 71 29 181 8 256 -41 152 -181
285 -332 319 -18 3 -33 8 -33 9 0 2 30 47 66 101 156 234 266 521 319 835 22
131 31 446 16 595 -62 637 -387 1147 -963 1512 -48 30 -88 60 -88 65 0 5 7 23
16 41 62 119 197 264 329 352 204 135 376 194 730 249 17 2 131 3 255 1 197
-3 240 -6 350 -30z m-1000 -3933 c59 -24 108 -70 136 -127 22 -47 26 -65 22
-120 -6 -103 -62 -158 -161 -158 -132 0 -247 119 -247 255 0 144 108 209 250
150z m1395 -2 c50 -31 69 -72 69 -150 0 -79 -23 -128 -87 -187 -108 -100 -266
-86 -311 27 -31 79 -17 162 40 229 88 103 202 135 289 81z"/>
<path d="M2190 5679 c-119 -7 -300 -38 -338 -58 -26 -14 -49 -43 -55 -72 -14
-58 126 -295 258 -436 301 -324 691 -469 1095 -409 159 24 330 85 345 123 10
26 35 182 35 222 0 29 -12 46 -92 128 -204 209 -418 342 -695 432 -188 62
-345 82 -553 70z m340 -209 c252 -54 515 -189 706 -362 94 -85 98 -90 90 -132
-6 -31 -11 -34 -79 -54 -197 -58 -444 -49 -627 23 -220 86 -441 275 -568 487
l-23 36 63 10 c79 13 365 8 438 -8z"/>
<path d="M8685 5679 c-382 -38 -732 -205 -1013 -482 -116 -114 -116 -113 -98
-248 17 -135 26 -146 140 -187 244 -89 541 -93 780 -12 308 104 594 357 761
675 53 102 54 132 6 176 -61 57 -373 98 -576 78z m348 -206 l28 -8 -49 -76
c-152 -233 -424 -429 -667 -481 -168 -36 -339 -29 -516 19 -53 14 -57 17 -62
50 -7 44 -1 53 92 136 208 185 470 313 736 362 87 16 386 15 438 -2z"/>
<path d="M3901 5073 c-33 -27 -45 -122 -45 -353 0 -243 14 -356 78 -610 58
-234 141 -454 316 -835 61 -134 181 -439 206 -524 16 -53 161 193 228 388 109
312 130 720 54 1026 -89 358 -318 653 -678 873 -89 55 -125 63 -159 35z m391
-569 c109 -55 196 -176 205 -286 10 -103 -34 -155 -123 -145 -135 15 -276 164
-291 309 -13 129 83 186 209 122z m297 -869 c-13 -153 -32 -262 -65 -366 l-26
-82 -99 224 c-105 237 -209 489 -209 507 0 7 17 4 46 -8 106 -46 226 -44 308
4 l41 24 7 -91 c3 -51 2 -146 -3 -212z"/>
<path d="M7063 5055 c-251 -140 -497 -390 -608 -619 -98 -203 -136 -374 -142
-641 -4 -161 -2 -210 16 -319 49 -296 131 -518 251 -681 23 -32 46 -53 50 -48
4 4 20 46 35 93 27 83 142 360 203 490 170 364 277 681 338 1005 34 182 44
469 21 618 -23 148 -51 165 -164 102z m-104 -539 c35 -18 51 -55 51 -115 0
-69 -24 -130 -78 -197 -102 -127 -255 -172 -315 -93 -115 155 171 493 342 405z
m-390 -610 c51 -26 60 -28 145 -24 64 4 106 12 140 27 27 12 50 20 51 19 7
-10 -186 -475 -266 -642 l-43 -89 -14 33 c-21 53 -50 175 -67 287 -15 105 -21
428 -7 421 4 -2 31 -16 61 -32z"/>
<path d="M5385 1289 c-137 -20 -318 -80 -299 -99 14 -13 169 -56 255 -70 49
-8 139 -11 255 -8 153 4 193 9 278 32 54 14 110 33 124 40 l26 13 -48 22
c-155 68 -401 97 -591 70z"/>
</g>
</svg>
