<?xml version="1.0" standalone="no"?>
<!DOCTYPE svg PUBLIC "-//W3C//DTD SVG 20010904//EN"
 "http://www.w3.org/TR/2001/REC-SVG-20010904/DTD/svg10.dtd">
<svg version="1.0" xmlns="http://www.w3.org/2000/svg"
 width="589.000000pt" height="589.000000pt" viewBox="0 0 589.000000 589.000000"
 preserveAspectRatio="xMidYMid meet">

<g transform="translate(0.000000,589.000000) scale(0.100000,-0.100000)"
fill="#000000" stroke="none">
<path d="M1280 4647 c-67 -44 -75 -73 -75 -252 l0 -160 1398 -3 1397 -2 0 167
c0 188 -7 213 -72 253 -32 20 -53 20 -1324 20 l-1291 0 -33 -23z"/>
<path d="M841 4094 c-153 -41 -268 -160 -300 -312 -7 -35 -11 -231 -11 -590 0
-580 1 -596 54 -701 35 -69 110 -139 186 -175 l65 -31 240 -3 241 -3 47 58
c111 139 282 241 467 279 99 20 259 15 355 -11 151 -40 314 -145 406 -260 l53
-65 866 2 865 3 66 32 c116 57 190 150 224 280 22 86 22 1111 0 1198 -41 155
-146 259 -302 300 -85 22 -3439 21 -3522 -1z"/>
<path d="M4810 2350 l0 -220 -1040 0 c-572 0 -1040 -2 -1040 -5 0 -3 9 -38 21
-78 11 -39 23 -116 26 -169 l6 -98 1013 0 1014 0 2 -297 3 -298 138 -3 137 -3
0 301 0 300 205 0 205 0 0 175 0 175 -205 0 -205 0 0 220 0 220 -140 0 -140 0
0 -220z"/>
<path d="M1835 2465 c-217 -47 -403 -218 -475 -435 -31 -93 -38 -244 -16 -344
73 -326 387 -547 719 -505 264 33 492 236 552 491 19 82 19 237 0 313 -59 233
-241 417 -471 475 -90 23 -218 25 -309 5z m242 -350 c146 -43 235 -220 189
-377 -20 -71 -91 -152 -161 -184 -60 -29 -158 -32 -228 -8 -139 47 -226 220
-183 366 48 165 214 253 383 203z"/>
</g>
</svg>
