<?xml version="1.0" standalone="no"?>
<!DOCTYPE svg PUBLIC "-//W3C//DTD SVG 20010904//EN"
 "http://www.w3.org/TR/2001/REC-SVG-20010904/DTD/svg10.dtd">
<svg version="1.0" xmlns="http://www.w3.org/2000/svg"
 width="649.000000pt" height="649.000000pt" viewBox="0 0 649.000000 649.000000"
 preserveAspectRatio="xMidYMid meet">

<g transform="translate(0.000000,649.000000) scale(0.100000,-0.100000)"
fill="#000000" stroke="none">
<path d="M4915 4785 c-110 -57 -201 -109 -203 -114 -2 -6 37 -68 85 -138 49
-71 92 -133 96 -139 4 -6 -11 -36 -31 -65 -21 -30 -112 -157 -202 -284 -166
-233 -285 -402 -327 -464 -22 -33 -23 -39 -23 -282 l0 -248 -86 -3 c-47 -2
-88 -1 -90 1 -2 2 -4 256 -4 563 0 616 2 595 -62 617 -40 14 -899 15 -947 1
-52 -15 -88 -56 -110 -124 -11 -34 -61 -203 -111 -376 -50 -173 -99 -337 -108
-365 l-17 -50 -85 -18 c-47 -10 -292 -61 -545 -113 -253 -52 -478 -100 -500
-105 -101 -27 -135 -85 -143 -243 l-5 -110 -80 -90 c-44 -50 -141 -160 -215
-244 -93 -106 -137 -150 -142 -140 -4 7 -40 96 -80 198 -40 102 -76 189 -80
194 -8 8 -20 -9 -175 -254 -50 -80 -136 -215 -190 -300 -217 -344 -296 -470
-301 -485 -5 -13 41 -15 396 -15 446 0 435 -1 504 67 51 51 69 106 64 194 l-4
72 71 53 70 53 27 90 c62 203 228 364 428 416 38 10 102 17 155 17 167 -1 293
-52 416 -169 110 -105 171 -227 188 -373 l6 -55 325 0 325 0 -3 100 c-13 385
259 714 641 775 329 53 666 -133 808 -446 45 -98 62 -185 62 -311 0 -62 3
-113 6 -113 20 0 114 65 140 97 60 73 61 84 59 558 l-3 430 -127 -4 c-103 -2
-128 0 -128 11 0 12 442 1013 451 1023 2 2 127 -173 277 -388 149 -216 282
-404 295 -420 19 -23 48 -34 202 -76 99 -26 181 -47 183 -46 1 1 -47 96 -109
211 -61 115 -154 290 -206 389 -53 99 -124 232 -158 295 -34 63 -106 198 -161
300 -238 447 -293 545 -306 547 -7 1 -103 -45 -213 -102z m-1275 -805 c19 -19
20 -33 20 -315 0 -282 -1 -296 -20 -315 -20 -20 -31 -20 -287 -18 l-266 3 -19
26 -19 26 76 269 c86 304 91 321 114 334 9 5 98 10 199 10 169 0 183 -1 202
-20z"/>
<path d="M5128 3253 c-16 -41 -22 -201 -9 -264 35 -168 163 -315 331 -380 85
-33 228 -38 316 -10 125 38 224 109 289 207 42 63 91 192 78 204 -4 5 -186 56
-403 115 -217 58 -434 117 -482 131 -48 13 -92 24 -98 24 -6 0 -16 -12 -22
-27z"/>
<path d="M3801 2684 c-394 -106 -583 -553 -385 -910 70 -127 195 -232 334
-281 99 -34 255 -43 350 -19 117 29 207 81 296 170 123 123 184 267 184 436 0
281 -199 535 -475 605 -74 19 -232 19 -304 -1z m275 -352 c54 -28 127 -110
142 -160 44 -145 -20 -287 -155 -349 -47 -22 -66 -25 -122 -21 -78 6 -120 25
-179 81 -74 72 -101 188 -66 290 23 67 93 141 157 167 66 26 163 23 223 -8z"/>
<path d="M1798 2401 c-82 -27 -135 -61 -201 -129 -252 -265 -133 -690 222
-796 193 -57 425 34 534 211 96 153 94 362 -4 515 -62 97 -182 182 -290 207
-70 16 -197 12 -261 -8z m255 -274 c83 -49 127 -163 97 -252 -33 -101 -151
-170 -248 -145 -104 25 -172 110 -172 214 0 88 65 181 145 206 52 16 128 6
178 -23z"/>
</g>
</svg>
